<svg xmlns="http://www.w3.org/2000/svg" width="28.771" height="25.865" viewBox="0 0 28.771 25.865">
  <path id="likes" d="M5678.86,119.465s1.554-3.161,3.908-4.2a8.182,8.182,0,0,1,5.648-.3,7.339,7.339,0,0,1,4.072,5.156,10.438,10.438,0,0,1-1.116,7.553c-.788,1.281-11.822,11.822-12.446,11.756s-4.4-3.341-7.75-6.8-5.057-5.123-5.648-7.027a9,9,0,0,1,.788-7.126c1.469-2.646,5.543-3.636,5.088-3.459a5.063,5.063,0,0,1,2.366,0A5.68,5.68,0,0,1,5676,116.05,8.335,8.335,0,0,1,5678.86,119.465Z" transform="translate(-5664.604 -114.064)" fill="#4a92ac" stroke="#4a92ac" stroke-width="1"/>
</svg>
